<?xml version="1.0" encoding="utf-8"?>
<!-- Svg Vector Icons : http://www.onlinewebfonts.com/icon -->
<!DOCTYPE svg PUBLIC "-//W3C//DTD SVG 1.1//EN" "http://www.w3.org/Graphics/SVG/1.1/DTD/svg11.dtd">
<svg version="1.1" xmlns="http://www.w3.org/2000/svg" xmlns:xlink="http://www.w3.org/1999/xlink" x="0px" y="0px" viewBox="0 0 256 256" enable-background="new 0 0 256 256" xml:space="preserve">
<metadata> Svg Vector Icons : http://www.onlinewebfonts.com/icon </metadata>
<g><g><g><path fill="#000000" d="M114.9,7c-7.2,2.1-12,6.8-13.9,13.7c-2.5,8.6,2,18.4,10.3,22.4c2.6,1.3,3.4,1.4,8.2,1.4c4.9,0,5.6-0.2,8.4-1.5c3.8-1.9,7.2-5.3,9.2-9.2c1.3-2.7,1.5-3.5,1.5-8.1c0-4.7-0.1-5.3-1.7-8.5c-2.1-4.3-6.1-8-10.1-9.5C123,6.5,117.9,6.1,114.9,7z"/><path fill="#000000" d="M99.3,57C81.3,62.5,80,63,77.7,65.4c-0.9,0.9-6.7,10.2-13,20.9C54,104.4,53.3,105.4,52.2,105c-2.1-0.9-3.3-0.1-5.1,3.4l-1.6,3.3l-7.4-3.5c-4.1-1.9-7.6-3.5-8-3.5c-1.6,0-3.1,2-5.7,7.4c-1.5,3.2-2.7,5.9-2.7,6c0.1,0,5.8,2.8,12.7,6L47,130l1-1c0.6-0.6,1.5-1,2-1c1.6,0,3.7,2.3,3.4,3.7c-0.2,1,0.9,1.6,12.4,7.1c9.9,4.7,12.7,5.8,13.1,5.3c0.3-0.4,1.6-3.2,3-6.3c3.4-7.6,3.6-7.3-5.9-11.9c-4.1-2-7.5-3.6-7.6-3.7c-0.2-0.1,0.4-1.4,1.1-2.8s1.3-3.2,1.3-4.1c0-1.3-0.3-1.7-2.3-2.6c-1.3-0.6-2.3-1.4-2.3-1.6c0-0.3,4.8-8.6,10.5-18.3L87.3,75l7.8-2.4c4.3-1.3,7.9-2.3,8.1-2.2c0.1,0.2-0.8,10-1.9,21.9c-2.5,25.2-2.3,22.3-3.6,51.5l-1.1,22.7l-9.9,13.2c-5.4,7.2-10.1,13.8-10.4,14.5c-2.6,6.9,2.3,14.2,9.7,14.2c4.9,0,5.8-0.8,18.1-17.2c7-9.3,11.6-15.8,12.1-17.2c0.6-1.6,1-6.8,1.6-17.2c0.5-8.2,0.9-15,1.1-15.2c0.1-0.2,6.2-0.3,13.5-0.3h13.3l0.3,10.1c0.2,8.2,0.4,10.4,1.1,11.7c3.4,6.3,11.4,7.5,16.4,2.6c3-3,3.3-4.5,3.3-18.2c0-10.5-0.1-12.3-1-15.2c-1.3-4.2-4.5-7.9-8.5-9.8l-2.9-1.4l-13.9-0.3c-13.6-0.3-13.9-0.3-13.8-1.3c0.1-0.6,1-9,1.9-18.7c1-9.8,1.9-18.3,2.1-19c0.3-1.2,0.5-1,3.8,2.4c2,2,4.3,4,5.1,4.5c2.3,1.2,40.9,12.4,42.7,12.4c2.1,0,4.6-1.6,5.6-3.5c0.4-0.9,0.8-2.6,0.8-3.8c0-1.9-0.3-2.6-1.7-4.1c-1.6-1.7-2.4-2-21.1-7.5L146,76.5l-9.9-10.8C121.2,49.4,122.8,49.7,99.3,57z M52.1,107.7c0.5,0.3,1,0.9,1,1.4c0,1.6,2,4.2,3.8,5c2.2,0.9,4.2,0.9,5.8,0c1.1-0.6,1.5-0.6,3.4,0.4c1.2,0.6,2.1,1.2,2.1,1.4c-0.1,0.2-0.6,1.4-1.2,2.7c-0.6,1.3-1.2,2.4-1.4,2.4c-0.5,0-16.7-7.6-17.2-8.1c-0.4-0.4,1.9-5.6,2.5-5.6C51,107.2,51.5,107.4,52.1,107.7z"/><path fill="#000000" d="M194.7,115c-5.9,1.9-10.5,5.9-13.1,11.3l-1.6,3.4l-0.2,20.3c-0.1,11.1-0.3,20.8-0.4,21.4c-0.2,0.7-0.9,1.8-1.6,2.4l-1.3,1.2H157c-15.8,0-20.2,0.2-22.5,0.8c-6.4,1.7-10.5,5-13.4,10.8l-1.9,3.8l-0.3,20.2l-0.3,20.2l-1.7,1.5l-1.6,1.5H94.9c-22.3,0-22.8,0-25,2.8c-0.6,0.8-1.4,2.3-1.7,3.3c-0.8,2.6,0.5,6,3,8l1.8,1.4l20.7,0.2c13,0.1,21.8,0,23.6-0.4c6.6-1.2,11.7-5.1,14.6-11l1.9-3.9l0.3-20.2l0.3-20.2l1.7-1.5l1.6-1.5h19.7c21.3,0,23.3-0.2,27.7-2.8c5-2.9,8.9-8.8,9.9-14.8c0.3-1.6,0.5-11.3,0.5-21.5v-18.6l1.2-1.4l1.2-1.4l21.5-0.3c20.9-0.3,21.6-0.3,23-1.3c2.7-2,3.8-4.2,3.6-7.2c-0.3-3.1-1.4-4.9-4-6.2c-1.6-0.9-3.3-1-23.6-0.9C202.4,114.3,196.2,114.5,194.7,115z"/><path fill="#000000" d="M15.2,131.4c-2.8,6-5.2,11.6-5.2,12.3s0.4,1.7,0.9,2.1c1.1,1,53.1,25.7,54.1,25.7c0.9,0,1-0.1,7-12.9c2.9-6.1,5.1-11.3,4.9-11.4c-0.6-0.6-24.3-11.6-24.8-11.6c-0.3,0-0.9,0.9-1.3,2c-1,2.4-2.7,3.4-4.8,2.7c-2-0.7-2.5-2.6-1.3-5.6l1-2.5l-12.6-5.9c-6.9-3.3-12.6-6-12.7-6C20.4,120.3,18.1,125.3,15.2,131.4z"/></g></g></g>
</svg>