<?xml version="1.0" encoding="utf-8"?>
<!-- Svg Vector Icons : http://www.onlinewebfonts.com/icon -->
<!DOCTYPE svg PUBLIC "-//W3C//DTD SVG 1.1//EN" "http://www.w3.org/Graphics/SVG/1.1/DTD/svg11.dtd">
<svg version="1.1" xmlns="http://www.w3.org/2000/svg" xmlns:xlink="http://www.w3.org/1999/xlink" x="0px" y="0px" viewBox="0 0 256 256" enable-background="new 0 0 256 256" xml:space="preserve">
<metadata> Svg Vector Icons : http://www.onlinewebfonts.com/icon </metadata>
<g><g><path fill="#000000" d="M108.1,204.5H57.7v8h141v-8h-49.3v-9.7H246V43.5H10v151.2h98.1V204.5z M27.3,172.5V60.8h201.5v111.7H27.3z"/><path fill="#000000" d="M99.9,91.4c-1.4,0-2.7,0.6-3.6,1.5l0,0l-19.7,19.7c-1.1,0.9-1.8,2.3-1.8,3.8c0,1.4,0.6,2.7,1.5,3.6l0,0l20,20l0,0c0.9,0.9,2.1,1.4,3.5,1.4c2.8,0,5-2.2,5-5c0-1.3-0.6-2.6-1.4-3.5l0,0l-16.5-16.5l16.5-16.5l0,0c0.9-0.9,1.5-2.2,1.5-3.6C104.9,93.6,102.7,91.4,99.9,91.4z"/><path fill="#000000" d="M179.9,112.6l-19.7-19.7l0,0c-0.9-0.9-2.2-1.5-3.6-1.5c-2.8,0-5,2.2-5,5c0,1.4,0.6,2.7,1.5,3.6l0,0l16.5,16.5L153.1,133l0,0c-0.9,0.9-1.4,2.1-1.4,3.5c0,2.8,2.2,5,5,5c1.3,0,2.6-0.6,3.5-1.4l0,0l20-20l0,0c0.9-0.9,1.5-2.2,1.5-3.6C181.7,114.9,181,113.6,179.9,112.6z"/><path fill="#000000" d="M141.6,76.4c-2.2,0-4,1.4-4.7,3.3l-26.7,70c-0.2,0.6-0.3,1.2-0.3,1.8c0,2.8,2.2,5,5,5c2.2,0,4-1.4,4.7-3.3l26.7-70c0.2-0.6,0.3-1.2,0.3-1.8C146.6,78.6,144.4,76.4,141.6,76.4z"/></g></g>
</svg>