<!--?xml version="1.0" encoding="utf-8"?-->
<!-- Svg Vector Icons : http://www.onlinewebfonts.com/icon -->

<svg version="1.1" xmlns="http://www.w3.org/2000/svg" xmlns:xlink="http://www.w3.org/1999/xlink" x="0px" y="0px" viewBox="0 0 256 256" enable-background="new 0 0 256 256" xml:space="preserve">
<metadata> Svg Vector Icons : http://www.onlinewebfonts.com/icon </metadata>
<g><g><path fill="#65b4a7" data-title="Layer 0" xs="0" d="M206,168.4c-3.2-4.8-7.7-7.7-12.9-9.7c4.7,0,9.7-0.2,14.7-0.7c-17.5-20-13.5-24.7-16-61.7c-0.5-29.4-11.7-67.1-23.9-75.9c-19.9-14.5-60.4-13.8-80.1,2.3c-7.2,5.9-15,21.9-17.4,41.1c-6.3,52.1-16.4,57.1-32.9,65.7c12.5,3.5,23.9,2.5,33.9-3.5c-4.3,10.7-11.2,15.4-18.2,19.5c10,7.9,21.9,10.2,32.7,8.2c-10.7,2.7-22.5,4.3-28.9,10.7C35.3,186.6,37.8,230.1,41,246c58.6,0,117.3,0,175.9,0C219.6,230.8,219.9,189.8,206,168.4z M93.9,83.9c0.2-2.2,0.3-4.3,0.7-6.3c5,1.2,10.2,2,15.5,2.5l0.2-7.5l2.3,0.7l0.5,3.2l1.2-4.8l2.7,0.2l4.2,9.2c17.8,0.7,35.2-1.2,46.4-3.3c0.8,7.2,0.5,14.9-1,22.2c-4,18.5-15.7,35.9-35.4,41.7c-18.2-3-29.9-17.7-34.7-34.7C94.4,99.5,93.6,91.6,93.9,83.9z M130.1,235.3c-17.8-22.5-32-49.4-40.4-82.4c7.2-2,13.8-5.9,19.2-11c6.2,4.7,13.5,7.8,22,9l0.8,0.2l1-0.3c6.5-1.8,12.4-4.7,17.5-8.3c4.8,5.5,11,9.5,18,12C160,184.4,147.3,211.3,130.1,235.3z"/></g></g>
</svg>