<?xml version="1.0" encoding="utf-8"?>
<!-- Svg Vector Icons : http://www.onlinewebfonts.com/icon -->
<!DOCTYPE svg PUBLIC "-//W3C//DTD SVG 1.1//EN" "http://www.w3.org/Graphics/SVG/1.1/DTD/svg11.dtd">
<svg version="1.1" xmlns="http://www.w3.org/2000/svg" xmlns:xlink="http://www.w3.org/1999/xlink" x="0px" y="0px" viewBox="0 0 256 256" enable-background="new 0 0 256 256" xml:space="preserve">
<metadata> Svg Vector Icons : http://www.onlinewebfonts.com/icon </metadata>
<g> <path fill="#3cb58f" d="M68.2,121.8c0,0-3.7,3.7-8.6,3.7c-4.8,0-8.6-3.7-8.6-3.7c0-13.9,4.3-31,5.9-36.9c-1.6-1.1-2.1-2.1-2.1-4.3 c0-2.1,1.6-4.3,3.7-4.8v-9.6l2.7,1.6v8c2.1,0.5,3.7,2.7,3.7,4.8c0,1.6-1.1,3.2-2.1,4.3c1.1,3.7,3.2,11.8,4.3,21.4 C67.7,111.1,68.2,116.5,68.2,121.8z"/> <path fill="#55bb9c" d="M75.2,118.6v5.9c0.5,5.4,2.1,10.7,5.9,15.5c2.1,2.7,3.2,2.7,6.4,1.6c1.1,0,2.7,4.8,3.2,5.9 c3.7,8.6,10.2,18.7,21.9,23c8,3.2,17.1,3.7,25.2,1.6c8.6-2.7,15.5-8.6,20.9-16.1c4.8-6.4,6.4-10.7,7.5-12.3 c0.5-0.5,0.5-1.6,1.1-1.6s1.6,0.5,2.1,0.5c1.6,0,2.7-1.1,3.7-2.1c3.2-4.3,5.4-9.6,5.9-15.5v-5.9c0-3.2-2.1-5.9-5.9-5.9h-0.5 l-0.5-1.1c0,0,0-2.7,0.5-3.7c0-4.3,0.5-9.1,1.1-13.4c0-1.6,0.5-3.7,0.5-5.4l-11.2-3.2c-0.5,0-5.4-1.1-5.4-1.1 c-2.7-0.5-18.2-1.6-33.2-2.1c-11.8,0-23,1.1-25.7,1.6c-1.1,0-2.7,0.5-3.2,0.5c0,0-8.6,1.6-11.8,3.2l-3.2,1.1 c0,4.3,0.5,8.6,0.5,12.8c0,3.2,0.5,7,0.5,10.2h-0.5C77.3,112.7,75.7,116,75.2,118.6L75.2,118.6z M92.8,109.5 c9.6,0,18.2-0.5,25.7-2.1c2.7-0.5,5.9-1.1,9.1-1.6c9.6-2.1,17.1-5.9,23.5-10.7c3.2,3.7,7.5,7,13.9,9.6h0.5v2.7 c-0.5,8.6-1.6,19.8-3.2,25.7c-1.6,7-13.4,34.8-36.4,34.2c-3.7,0-7.5-1.1-10.7-2.1c-11.8-3.7-18.2-15-23-30 c-2.1-6.4-3.2-13.9-3.2-22.5c0-1.6,0-3.7-0.5-5.4C90.2,109.5,91.8,109.5,92.8,109.5L92.8,109.5z"/> <path fill="#55bb9c" d="M172,69.4c0-3.2,0-1.6-0.5-4.8c-0.5-1.6-0.5-2.7-2.1-3.2c-1.6-1.1-3.2-2.1-4.8-2.7 c-4.3-2.1-8.6-3.7-13.4-4.3c-10.2-2.1-20.3-2.7-30.5-2.1c-4.3,0-8.6,0.5-12.8,1.1c-7,1.1-13.9,2.7-20.3,6.4 c-2.1,0.5-3.7,1.6-4.3,4.3c-1.6,6.4-1.6,12.3-1.6,18.7v0.5c3.7-1.6,8-2.7,12.3-3.2c2.7-0.5,5.9-1.1,9.1-1.1 c2.1-0.5,10.7-1.1,18.7-1.1c7.5,0,15,0,23,0.5c5.4,0.5,11.2,1.1,16.6,2.1c1.1,0,2.7,0.5,3.7,1.1l7.5,2.1 C172.6,80.1,172.6,72.6,172,69.4L172,69.4z"/> <path fill="#55bb9c" d="M77.8,63c1.1-4.8,4.3-6.4,7-8c6.4-3.7,13.4-5.9,22.5-7c3.7-0.5,17.7-1.1,19.8-1.1c9.1,0,17.1,0.5,25.2,2.1 c5.4,1.1,10.2,2.7,14.4,4.8c1.6,1.1,5.4,3.2,5.4,3.2c2.7,1.6,3.7,4.3,4.3,6.4c0.5,2.7,0.5,5.4,0.5,7.5v2.1c0,0,18.7-10.7,27.8-16.1 c-1.6-1.1-2.1-1.6-3.2-2.1c-23.5-13.4-47.1-26.8-71.2-40.1c-2.7-1.6-4.3-1.6-7,0c-23,13.4-46.6,26.2-69.6,39.6 c-1.6,1.1-2.7,1.6-4.8,3.2c4.3,2.1,27.3,16.1,27.3,16.1C76.8,69.4,77.3,66.2,77.8,63z M202,196.8c-11.8-7.5-40.1-17.7-40.7-17.7 c0,0-7,14.4-9.6,20.3c-2.1,3.7-5.4,4.3-7.5,0.5c-2.1-3.2-7.5-10.7-8-11.8c-1.6-2.1-3.2-2.7-5.4-0.5c-0.5,0.5-2.7,2.7-3.7,2.7 s-3.2-2.1-3.7-2.7c-2.1-2.1-3.2-2.1-5.4,0.5c-2.1,2.7-5.4,8-7.5,10.2c-4.3,5.4-8,4.3-10.2,0c-2.7-7-8-19.8-8-19.8 c-0.5,0-28.9,10.2-40.7,17.7c-26.8,16.6-26.2,45.5-26.2,45.5h205C230.9,242.8,234.1,218.2,202,196.8L202,196.8z"/> <path fill="#3cb58f" d="M230.9,246C230.4,246,230.4,246,230.9,246H25.4c-2.1,0-3.7-1.6-3.7-3.2c0-0.5,0-8,3.2-17.7 c3.2-9.1,9.6-21.4,24.6-31c11.8-8,41.2-18.2,41.7-18.2c1.6-0.5,3.2,0.5,3.7,1.6c0,0.5,0,0.5,1.6,3.2c1.6,4.3,4.8,11.8,7,16.6 c0.5,1.1,1.1,1.6,1.1,1.6s1.1-0.5,2.7-2.1c1.1-1.6,3.2-4.8,5.4-7c1.1-1.1,1.6-2.1,2.1-3.2c1.1-1.6,2.7-3.2,5.4-3.2s4.3,1.6,5.4,2.7 l1.1,1.1c0.5-0.5,1.1-0.5,1.1-1.1c1.6-1.6,3.7-2.7,5.4-2.7c2.1,0,3.7,1.1,5.4,3.2c0.5,0.5,2.1,2.7,3.7,5.4c1.6,2.1,3.2,4.8,4.3,6.4 l1.1,1.1c0,0,0.5-0.5,0.5-1.1c1.1-2.1,9.6-20.3,10.2-20.3c0.5-1.1,2.1-2.1,3.7-1.6c1.1,0,30,10.2,41.7,18.2 c7.5,4.8,13.9,10.7,18.7,16.6c3.7,4.8,7,10.2,9.1,15.5c1.6,3.7,2.1,8,2.7,11.8c0,0.5,0.5,4.3,0,5.9C233.6,244.9,232,246,230.9,246 L230.9,246z M29.1,239h198c-0.5-7-4.3-23.5-27.3-39.1c-9.1-5.9-29.4-13.9-36.9-16.6c-2.1,4.3-6.4,12.8-8.6,17.7 c-1.1,1.6-2.7,4.8-6.4,5.4c-1.6,0-4.8,0-7.5-3.7c-1.1-1.6-2.7-3.7-4.3-6.4c-1.6-2.7-3.2-4.3-3.7-5.4l-1.6,1.6 c-1.6,1.6-2.7,2.1-4.3,2.1c-1.1,0-2.7-0.5-4.3-2.1c-0.5-0.5-1.6-1.1-1.6-1.6c-0.5,1.1-1.6,2.1-2.1,3.2c-1.6,2.7-3.7,5.4-5.4,7.5 c-3.7,4.8-7,5.4-9.1,4.8c-2.7-0.5-5.4-2.1-6.4-5.9c-2.1-4.8-4.8-12.3-7-16.6c-8,2.7-27.8,10.2-36.9,16.6 C34,212.3,30.2,231,29.1,239L29.1,239z M176.8,76.9c-0.5,0-1.1,0-1.6-0.5c-1.1-0.5-1.6-1.6-1.6-3.2V71c0-2.1,0-4.3-0.5-7 c-0.5-2.1-1.1-3.2-2.7-4.3c-1.6-1.1-3.7-2.7-4.8-3.2c-4.3-2.1-8.6-3.7-13.4-4.8c-7.5-1.6-15.5-2.1-24.1-2.1 c-2.1,0-15.5,0.5-19.3,1.1c-8.6,1.1-15,3.2-20.9,6.4c-2.7,1.6-4.3,2.7-5.4,5.9c-0.5,2.7-1.1,5.9-1.1,9.6c0,1.1-0.5,2.1-1.6,3.2 c-1.1,0.5-2.7,0.5-3.7,0c0,0-23.5-13.4-27.3-16.1c-2.7,0-3.2-1.1-3.2-2.1c0-1.1,0.5-2.7,1.6-3.2c0.5-0.5,1.1-0.5,1.6-1.1 c1.1-0.5,2.1-1.6,3.2-2.1c4.8-2.7,10.2-5.4,15-8.6c18.2-10.2,36.4-20.9,55.1-31c3.7-2.1,7-2.1,10.2,0c16.1,9.1,32.6,18.7,48.7,27.8 c7.5,4.3,14.4,8.6,21.9,12.8c1.1,0.5,2.1,1.1,3.2,2.1l0.5,0.5c1.1,0.5,1.6,1.6,1.6,2.7c0,1.1-0.5,2.1-1.6,2.7 c-8.6,4.8-27.8,16.1-27.8,16.1C177.9,76.9,177.4,76.9,176.8,76.9L176.8,76.9z M127.1,43.2c9.1,0,17.7,1.1,25.7,2.7 c5.9,1.1,10.7,2.7,15.5,5.4c1.6,1.1,5.4,3.2,5.9,3.2c3.7,2.7,4.8,5.9,5.9,8.6c0.5,1.6,0.5,3.2,0.5,4.8c4.8-2.7,11.8-7,17.7-10.2 c-7-3.7-13.4-7.5-20.3-11.2c-16.1-9.1-32.6-18.2-48.7-27.8c-1.6-1.1-2.1-1.1-3.2,0c-19.3,10.2-37.5,20.3-55.7,30.5l-14.4,8 c5.4,3.2,12.8,7.5,17.7,10.2c0-2.1,0.5-3.7,1.1-5.4c1.6-6.4,5.9-8.6,8.6-10.2c6.4-3.7,13.9-5.9,23.5-7.5 C111,43.7,124.9,43.2,127.1,43.2z"/> <path fill="#55bb9c" d="M107.3,119.2c0,1.8,1.4,3.2,3.2,3.2c1.8,0,3.2-1.4,3.2-3.2l0,0c0-1.8-1.4-3.2-3.2-3.2 C108.7,116,107.3,117.4,107.3,119.2z"/> <path fill="#55bb9c" d="M140.5,119.2c0,1.8,1.4,3.2,3.2,3.2c1.8,0,3.2-1.4,3.2-3.2c0,0,0,0,0,0c0-1.8-1.4-3.2-3.2-3.2 C141.9,116,140.5,117.4,140.5,119.2C140.5,119.2,140.5,119.2,140.5,119.2z"/> <path fill="#e54f6e" d="M137.2,150.7c0,0-4.8,3.2-10.2,3.2c-5.4,0-10.2-3.2-10.2-3.2s4.8,1.6,10.2,1.6 C132.4,152.3,137.2,150.7,137.2,150.7z"/> <path fill="#fcfdfe" d="M107.3,36.8c-1.1-1.6-0.5-3.7,1.1-4.3l13.4-7.5c1.6-1.1,3.7-0.5,4.3,1.1c1.1,1.6,0.5,3.7-1.1,4.3l-12.8,8 C110.5,38.9,108.3,38.4,107.3,36.8z"/> <path fill="#fcfdfe" d="M97.6,40.5c0,1.8,1.4,3.2,3.2,3.2c1.8,0,3.2-1.4,3.2-3.2c0-1.8-1.4-3.2-3.2-3.2 C99.1,37.3,97.6,38.7,97.6,40.5z"/></g>
</svg>